<svg xmlns="http://www.w3.org/2000/svg" xmlns:xlink="http://www.w3.org/1999/xlink" width="700" zoomAndPan="magnify" viewBox="0 0 525 157.5" height="210" preserveAspectRatio="xMidYMid meet" version="1.0"><defs><clipPath id="75f562d961"><path d="M 0.832031 54 L 118 54 L 118 157 L 0.832031 157 Z M 0.832031 54 " clip-rule="nonzero"/></clipPath><clipPath id="db631688a7"><path d="M 117 0 L 234.089844 0 L 234.089844 103 L 117 103 Z M 117 0 " clip-rule="nonzero"/></clipPath></defs><g clip-path="url(#75f562d961)"><path fill="#293134" d="M 79.441406 126.921875 L 79.441406 141.132812 L 15.085938 111.234375 L 15.085938 99.707031 L 79.441406 69.808594 L 79.441406 84.019531 L 30.773438 105.335938 L 30.773438 105.605469 Z M 117.660156 54.015625 L 10.039062 54.015625 C 4.960938 54.015625 0.839844 58.136719 0.839844 63.21875 L 0.839844 147.722656 C 0.839844 152.804688 4.960938 156.921875 10.039062 156.921875 L 87.785156 156.921875 L 117.660156 54.015625 " fill-opacity="1" fill-rule="nonzero"/></g><g clip-path="url(#db631688a7)"><path fill="#0652e9" d="M 220.058594 57.671875 L 155.707031 87.167969 L 155.707031 72.953125 L 205.445312 51.640625 L 205.445312 51.371094 L 155.707031 30.050781 L 155.707031 15.84375 L 220.058594 45.335938 Z M 147.535156 0.0507812 L 117.660156 102.957031 L 225.105469 102.957031 C 230.1875 102.957031 234.304688 98.839844 234.304688 93.757812 L 234.304688 9.25 C 234.304688 4.171875 230.1875 0.0507812 225.105469 0.0507812 L 147.535156 0.0507812 " fill-opacity="1" fill-rule="nonzero"/></g></svg>