<svg xmlns="http://www.w3.org/2000/svg" xmlns:xlink="http://www.w3.org/1999/xlink" width="300" zoomAndPan="magnify" viewBox="0 0 224.87999 149.999998" height="200" preserveAspectRatio="xMidYMid meet" version="1.0"><defs><clipPath id="79c8ca0ddd"><path d="M 0 0.0390625 L 224.761719 0.0390625 L 224.761719 149.960938 L 0 149.960938 Z M 0 0.0390625 " clip-rule="nonzero"/></clipPath><clipPath id="5ab507e3f3"><path d="M 0 53 L 90 53 L 90 132.375 L 0 132.375 Z M 0 53 " clip-rule="nonzero"/></clipPath><clipPath id="a7a5cf3ef6"><path d="M 89 12.4375 L 178.40625 12.4375 L 178.40625 92 L 89 92 Z M 89 12.4375 " clip-rule="nonzero"/></clipPath></defs><g clip-path="url(#79c8ca0ddd)"><path fill="#ffffff" d="M 0 0.0390625 L 224.878906 0.0390625 L 224.878906 149.960938 L 0 149.960938 Z M 0 0.0390625 " fill-opacity="1" fill-rule="nonzero"/><path fill="#f3f5f9" d="M 0 0.0390625 L 224.878906 0.0390625 L 224.878906 149.960938 L 0 149.960938 Z M 0 0.0390625 " fill-opacity="1" fill-rule="nonzero"/></g><g clip-path="url(#5ab507e3f3)"><path fill="#293134" d="M 60.132812 109.527344 L 60.132812 120.398438 L 10.90625 97.527344 L 10.90625 88.710938 L 60.132812 65.839844 L 60.132812 76.710938 L 22.902344 93.015625 L 22.902344 93.222656 Z M 89.367188 53.761719 L 7.042969 53.761719 C 3.160156 53.761719 0.0078125 56.910156 0.0078125 60.800781 L 0.0078125 125.441406 C 0.0078125 129.328125 3.160156 132.476562 7.042969 132.476562 L 66.515625 132.476562 L 89.367188 53.761719 " fill-opacity="1" fill-rule="nonzero"/></g><g clip-path="url(#a7a5cf3ef6)"><path fill="#0652e9" d="M 167.695312 56.558594 L 118.46875 79.117188 L 118.46875 68.246094 L 156.515625 51.941406 L 156.515625 51.738281 L 118.46875 35.429688 L 118.46875 24.558594 L 167.695312 47.121094 Z M 112.222656 12.480469 L 89.367188 91.199219 L 171.554688 91.199219 C 175.441406 91.199219 178.59375 88.046875 178.59375 84.160156 L 178.59375 19.515625 C 178.59375 15.632812 175.441406 12.480469 171.554688 12.480469 L 112.222656 12.480469 " fill-opacity="1" fill-rule="nonzero"/></g></svg>