<svg xmlns="http://www.w3.org/2000/svg" xmlns:xlink="http://www.w3.org/1999/xlink" width="700" zoomAndPan="magnify" viewBox="0 0 525 195.000001" height="260" preserveAspectRatio="xMidYMid meet" version="1.0"><defs><clipPath id="f95a3c692e"><path d="M 1.339844 66 L 146 66 L 146 194 L 1.339844 194 Z M 1.339844 66 " clip-rule="nonzero"/></clipPath></defs><g clip-path="url(#f95a3c692e)"><path fill="#293134" d="M 98.476562 156.835938 L 98.476562 174.394531 L 18.957031 137.453125 L 18.957031 123.203125 L 98.476562 86.261719 L 98.476562 103.824219 L 38.339844 130.160156 L 38.339844 130.492188 Z M 145.699219 66.75 L 12.71875 66.75 C 6.441406 66.75 1.351562 71.839844 1.351562 78.117188 L 1.351562 182.539062 C 1.351562 188.816406 6.441406 193.90625 12.71875 193.90625 L 108.785156 193.90625 L 145.699219 66.75 " fill-opacity="1" fill-rule="nonzero"/></g><path fill="#0652e9" d="M 272.230469 71.265625 L 192.714844 107.710938 L 192.714844 90.148438 L 254.175781 63.8125 L 254.175781 63.480469 L 192.714844 37.136719 L 192.714844 19.578125 L 272.230469 56.023438 Z M 182.621094 0.0664062 L 145.699219 127.222656 L 278.46875 127.222656 C 284.746094 127.222656 289.835938 122.132812 289.835938 115.855469 L 289.835938 11.433594 C 289.835938 5.15625 284.746094 0.0664062 278.46875 0.0664062 L 182.621094 0.0664062 " fill-opacity="1" fill-rule="nonzero"/></svg>