<svg xmlns="http://www.w3.org/2000/svg" xmlns:xlink="http://www.w3.org/1999/xlink" width="2000" zoomAndPan="magnify" viewBox="0 0 1500 1124.99995" height="1500" preserveAspectRatio="xMidYMid meet" version="1.0"><path fill="#ebebeb" d="M 288.5 955.15625 L 375.148438 955.15625 L 375.148438 927.578125 L 288.5 927.578125 Z M 288.5 955.15625 " fill-opacity="1" fill-rule="nonzero"/><path fill="#ebebeb" d="M 499.417969 683.121094 L 586.066406 683.121094 L 586.066406 655.542969 L 499.417969 655.542969 Z M 499.417969 683.121094 " fill-opacity="1" fill-rule="nonzero"/><path fill="#ebebeb" d="M 326.816406 989.925781 L 283.191406 989.203125 L 261.636719 988.90625 L 240.167969 988.800781 L 241.292969 989.925781 L 241.398438 962.347656 L 240.171875 963.578125 L 283.492188 963.410156 L 305.152344 963.199219 L 326.816406 962.933594 L 326.230469 962.347656 Z M 326.816406 989.925781 L 327.398438 962.347656 L 327.410156 961.769531 L 326.8125 961.765625 L 305.152344 961.496094 L 283.492188 961.285156 L 240.167969 961.117188 L 238.929688 961.113281 L 238.933594 962.347656 L 239.042969 989.925781 L 239.046875 991.054688 L 240.167969 991.050781 L 262.023438 990.945312 L 283.789062 990.648438 Z M 326.816406 989.925781 " fill-opacity="1" fill-rule="nonzero"/><path fill="#ebebeb" d="M 876.863281 317.601562 L 833.242188 316.878906 L 811.683594 316.582031 L 790.21875 316.476562 L 791.339844 317.601562 L 791.449219 290.023438 L 790.21875 291.253906 L 833.542969 291.085938 L 855.203125 290.875 L 876.863281 290.605469 L 876.28125 290.023438 Z M 876.863281 317.601562 L 877.449219 290.023438 L 877.460938 289.441406 L 876.863281 289.4375 L 855.203125 289.167969 L 833.542969 288.957031 L 790.21875 288.789062 L 788.984375 288.785156 L 788.988281 290.023438 L 789.097656 317.601562 L 789.101562 318.730469 L 790.222656 318.722656 L 812.078125 318.617188 L 833.84375 318.320312 Z M 876.863281 317.601562 " fill-opacity="1" fill-rule="nonzero"/><path fill="#ebebeb" d="M 828.53125 352.371094 L 784.910156 351.648438 L 763.351562 351.355469 L 741.886719 351.246094 L 743.007812 352.371094 L 743.117188 324.792969 L 741.886719 326.023438 L 785.210938 325.855469 L 806.871094 325.648438 L 828.53125 325.378906 L 827.949219 324.792969 Z M 828.53125 352.371094 L 829.113281 324.792969 L 829.125 324.21875 L 828.53125 324.210938 L 806.871094 323.941406 L 785.210938 323.730469 L 741.886719 323.5625 L 740.648438 323.558594 L 740.652344 324.796875 L 740.761719 352.375 L 740.765625 353.503906 L 741.886719 353.496094 L 763.742188 353.390625 L 785.507812 353.097656 Z M 828.53125 352.371094 " fill-opacity="1" fill-rule="nonzero"/><path fill="#ebebeb" d="M 693.738281 317.601562 L 780.386719 317.601562 L 780.386719 290.023438 L 693.738281 290.023438 Z M 693.738281 317.601562 " fill-opacity="1" fill-rule="nonzero"/><path fill="#ebebeb" d="M 1173.039062 989.925781 L 1259.683594 989.925781 L 1259.683594 962.347656 L 1173.039062 962.347656 Z M 1173.039062 989.925781 " fill-opacity="1" fill-rule="nonzero"/><path fill="#ebebeb" d="M 1124.707031 138.316406 L 1211.351562 138.316406 L 1211.351562 110.738281 L 1124.707031 110.738281 Z M 1124.707031 138.316406 " fill-opacity="1" fill-rule="nonzero"/><path fill="#ebebeb" d="M 1259.6875 173.089844 L 1216.066406 172.367188 L 1194.507812 172.070312 L 1173.039062 171.964844 L 1174.164062 173.089844 L 1174.273438 145.511719 L 1173.042969 146.742188 L 1216.367188 146.574219 L 1238.027344 146.363281 L 1259.6875 146.09375 L 1259.101562 145.511719 Z M 1259.6875 173.089844 L 1260.269531 145.511719 L 1260.285156 144.933594 L 1259.6875 144.925781 L 1238.027344 144.65625 L 1216.367188 144.445312 L 1173.042969 144.277344 L 1171.804688 144.273438 L 1171.808594 145.511719 L 1171.917969 173.089844 L 1171.921875 174.21875 L 1173.042969 174.214844 L 1194.898438 174.105469 L 1216.664062 173.8125 Z M 1259.6875 173.089844 " fill-opacity="1" fill-rule="nonzero"/><path fill="#ebebeb" d="M 375.148438 138.316406 L 331.527344 137.59375 L 309.96875 137.296875 L 288.5 137.191406 L 289.625 138.316406 L 289.734375 110.738281 L 288.503906 111.96875 L 331.828125 111.800781 L 353.488281 111.589844 L 375.148438 111.320312 L 374.5625 110.738281 Z M 375.148438 138.316406 L 375.734375 110.738281 L 375.746094 110.160156 L 375.144531 110.152344 L 353.484375 109.882812 L 331.824219 109.671875 L 288.5 109.503906 L 287.265625 109.5 L 287.273438 110.734375 L 287.378906 138.3125 L 287.386719 139.441406 L 288.503906 139.4375 L 310.359375 139.332031 L 332.125 139.035156 Z M 375.148438 138.316406 " fill-opacity="1" fill-rule="nonzero"/><path fill="#ebebeb" d="M 592.777344 106.351562 L 592.777344 586.882812 L 280.445312 586.882812 L 280.445312 106.351562 Z M 291.972656 575.355469 L 581.253906 575.355469 L 581.253906 117.878906 L 291.972656 117.878906 Z M 291.972656 575.355469 " fill-opacity="1" fill-rule="nonzero"/><path fill="#ffffff" d="M 581.253906 117.878906 L 291.972656 117.878906 L 291.972656 575.355469 L 581.253906 575.355469 Z M 581.253906 117.878906 " fill-opacity="1" fill-rule="nonzero"/><path fill="#ebebeb" d="M 291.980469 352.375 L 581.257812 352.375 L 581.257812 340.851562 L 291.980469 340.851562 Z M 291.980469 352.375 " fill-opacity="1" fill-rule="nonzero"/><path fill="#dbdbdb" d="M 259.234375 619.949219 L 614.003906 619.949219 L 614.003906 586.875 L 259.234375 586.875 Z M 259.234375 619.949219 " fill-opacity="1" fill-rule="nonzero"/><path fill="#dbdbdb" d="M 581.261719 117.867188 L 291.980469 117.867188 L 291.980469 413.847656 L 581.261719 413.847656 Z M 302.652344 128.539062 L 570.589844 128.539062 L 570.589844 403.175781 L 302.652344 403.175781 Z M 302.652344 128.539062 " fill-opacity="1" fill-rule="nonzero"/><path fill="#dbdbdb" d="M 390.070312 117.867188 L 384.308594 117.867188 L 384.308594 403.175781 L 390.070312 403.175781 Z M 390.070312 117.867188 " fill-opacity="1" fill-rule="nonzero"/><path fill="#dbdbdb" d="M 488.9375 117.867188 L 483.175781 117.867188 L 483.175781 403.175781 L 488.9375 403.175781 Z M 488.9375 117.867188 " fill-opacity="1" fill-rule="nonzero"/><path fill="#ebebeb" d="M 1219.390625 106.351562 L 1219.390625 586.882812 L 907.058594 586.882812 L 907.058594 106.351562 Z M 918.585938 575.355469 L 1207.863281 575.355469 L 1207.863281 117.878906 L 918.585938 117.878906 Z M 918.585938 575.355469 " fill-opacity="1" fill-rule="nonzero"/><path fill="#ffffff" d="M 1207.863281 117.878906 L 918.585938 117.878906 L 918.585938 575.355469 L 1207.863281 575.355469 Z M 1207.863281 117.878906 " fill-opacity="1" fill-rule="nonzero"/><path fill="#ebebeb" d="M 918.589844 352.375 L 1207.871094 352.375 L 1207.871094 340.851562 L 918.589844 340.851562 Z M 918.589844 352.375 " fill-opacity="1" fill-rule="nonzero"/><path fill="#dbdbdb" d="M 885.847656 619.949219 L 1240.621094 619.949219 L 1240.621094 586.875 L 885.847656 586.875 Z M 885.847656 619.949219 " fill-opacity="1" fill-rule="nonzero"/><path fill="#dbdbdb" d="M 1207.875 117.867188 L 918.59375 117.867188 L 918.59375 413.847656 L 1207.875 413.847656 Z M 929.265625 128.539062 L 1197.203125 128.539062 L 1197.203125 403.175781 L 929.265625 403.175781 Z M 929.265625 128.539062 " fill-opacity="1" fill-rule="nonzero"/><path fill="#dbdbdb" d="M 1016.679688 117.867188 L 1010.921875 117.867188 L 1010.921875 403.175781 L 1016.679688 403.175781 Z M 1016.679688 117.867188 " fill-opacity="1" fill-rule="nonzero"/><path fill="#dbdbdb" d="M 1115.546875 117.867188 L 1109.789062 117.867188 L 1109.789062 403.175781 L 1115.546875 403.175781 Z M 1115.546875 117.867188 " fill-opacity="1" fill-rule="nonzero"/><path fill="#263238" d="M 1263.894531 1096.605469 L 1135.402344 1096.003906 L 1006.910156 1095.785156 L 749.925781 1095.375 L 492.945312 1095.785156 L 364.453125 1096 L 235.960938 1096.605469 L 364.453125 1097.207031 L 492.945312 1097.421875 L 749.925781 1097.832031 L 1006.910156 1097.417969 L 1135.402344 1097.203125 Z M 1263.894531 1096.605469 " fill-opacity="1" fill-rule="nonzero"/><path fill="#455a64" d="M 550.199219 734.636719 L 237.476562 734.636719 L 237.476562 779.019531 L 550.199219 779.019531 Z M 550.199219 734.636719 " fill-opacity="1" fill-rule="nonzero"/><path fill="#455a64" d="M 542.742188 779.019531 L 244.933594 779.019531 L 244.933594 793.433594 L 542.742188 793.433594 Z M 542.742188 779.019531 " fill-opacity="1" fill-rule="nonzero"/><path fill="#263238" d="M 542.742188 779.019531 L 244.933594 779.019531 L 244.933594 783.789062 L 542.742188 783.789062 Z M 542.742188 779.019531 " fill-opacity="1" fill-rule="nonzero"/><path fill="#455a64" d="M 539.808594 1097.832031 L 551.71875 1097.832031 L 517.058594 793.433594 L 486.664062 793.433594 Z M 539.808594 1097.832031 " fill-opacity="1" fill-rule="nonzero"/><path fill="#263238" d="M 486.671875 793.4375 L 490.230469 813.804688 L 519.367188 813.804688 L 517.058594 793.4375 Z M 486.671875 793.4375 " fill-opacity="1" fill-rule="nonzero"/><path fill="#455a64" d="M 247.871094 1097.832031 L 235.960938 1097.832031 L 270.617188 793.433594 L 301.015625 793.433594 Z M 247.871094 1097.832031 " fill-opacity="1" fill-rule="nonzero"/><path fill="#263238" d="M 301.007812 793.4375 L 297.449219 813.804688 L 268.3125 813.804688 L 270.621094 793.4375 Z M 301.007812 793.4375 " fill-opacity="1" fill-rule="nonzero"/><path fill="#42a200" d="M 317.183594 914.503906 C 319.28125 923.421875 321.5 932.203125 321.929688 941.355469 C 321.6875 941.804688 321.734375 943.464844 322.003906 943.015625 C 322.058594 944.488281 324.304688 944.21875 324.304688 942.765625 C 324.28125 941.816406 324.257812 940.867188 324.210938 939.945312 C 329.460938 933.433594 337.078125 929.304688 343.234375 923.644531 C 348.214844 919.0625 351.777344 913.601562 353.660156 907.050781 C 358.769531 889.445312 353.980469 870.792969 360.125 853.230469 C 365.417969 838.09375 374.917969 824.929688 382.957031 811.214844 C 391.441406 796.707031 397.703125 781.464844 398.328125 764.476562 C 398.828125 751.464844 397.277344 734.128906 387.371094 724.382812 C 376.867188 714.039062 363.847656 721.789062 355.800781 731.011719 C 332.484375 757.773438 321.695312 791.59375 317.332031 826.171875 C 314.925781 845.3125 312.429688 864.5625 313.007812 883.882812 C 313.335938 894.265625 314.828125 904.417969 317.183594 914.503906 Z M 317.183594 914.503906 " fill-opacity="1" fill-rule="nonzero"/><path fill="#263238" d="M 321.832031 948.382812 C 320.625 930.292969 320.699219 912.179688 322.472656 894.164062 C 322.441406 894.097656 322.382812 894.054688 322.382812 893.964844 C 322.089844 879.308594 320.925781 864.710938 321.5 850.039062 C 322.125 834.101562 324.460938 818.476562 327.957031 802.925781 C 327.996094 802.746094 328.273438 802.785156 328.238281 802.972656 C 325.367188 818.140625 323.695312 833.621094 323.140625 849.046875 C 322.84375 857.324219 322.902344 865.613281 323.335938 873.886719 C 323.480469 876.578125 323.730469 879.292969 323.910156 882.003906 C 323.910156 881.996094 323.910156 881.988281 323.910156 881.980469 C 329.820312 840.738281 345.042969 801.609375 367.515625 766.59375 C 367.820312 766.117188 368.664062 766.628906 368.367188 767.113281 C 352.183594 793.535156 340.253906 822.558594 332.875 852.671875 C 344.089844 831.898438 361.023438 814.8125 373.589844 794.851562 C 373.65625 794.742188 373.835938 794.851562 373.78125 794.96875 C 362.492188 817.191406 343.84375 834.714844 331.957031 856.609375 C 329.894531 865.535156 328.207031 874.542969 326.949219 883.605469 C 325.226562 896.046875 324.414062 908.566406 324.246094 921.105469 C 331.074219 908.339844 338.167969 896.125 343.753906 882.625 C 343.902344 882.265625 344.417969 882.511719 344.296875 882.867188 C 339.542969 896.894531 333.15625 912.003906 324.210938 923.964844 C 324.160156 932.835938 324.425781 941.71875 324.945312 950.585938 C 326.339844 974.257812 330.382812 997.613281 332.253906 1021.203125 C 332.308594 1021.914062 331.308594 1022 331.171875 1021.320312 C 326.253906 997.511719 323.449219 972.632812 321.832031 948.382812 Z M 321.832031 948.382812 " fill-opacity="1" fill-rule="nonzero"/><path fill="#263238" d="M 346.96875 765.835938 C 347.039062 765.664062 347.292969 765.78125 347.230469 765.953125 C 342.90625 777.910156 340.464844 790.023438 337.339844 802.277344 C 337.199219 802.839844 336.390625 802.71875 336.449219 802.132812 C 337.71875 789.699219 342.15625 777.296875 346.96875 765.835938 Z M 346.96875 765.835938 " fill-opacity="1" fill-rule="nonzero"/><path fill="#42a200" d="M 237.179688 815.945312 C 239.980469 822.964844 243.460938 829.765625 247.121094 836.371094 C 254.90625 850.511719 263.027344 863.464844 264.496094 879.925781 C 265.15625 887.277344 265.386719 894.664062 267.628906 901.746094 C 269.5625 907.878906 272.707031 913.535156 276.320312 918.824219 C 284.761719 931.117188 295.304688 941.707031 303.125 954.464844 C 311.261719 967.71875 317.261719 982.304688 320.933594 997.40625 C 321.128906 998.234375 322.433594 998.011719 322.238281 997.1875 C 322.207031 997.121094 322.199219 997.066406 322.1875 996.996094 C 322.21875 996.953125 322.261719 996.914062 322.265625 996.820312 C 323.503906 961.523438 320.6875 925.945312 309.921875 892.132812 C 305.210938 877.347656 299.40625 862.640625 292.8125 848.585938 C 287.046875 836.324219 279.859375 824.535156 269.730469 815.378906 C 263.164062 809.460938 248.914062 798.242188 239.5625 804.179688 C 235.074219 807.03125 235.410156 811.539062 237.179688 815.945312 Z M 237.179688 815.945312 " fill-opacity="1" fill-rule="nonzero"/><path fill="#263238" d="M 272.65625 895.964844 C 278.707031 906.3125 285.886719 915.945312 293.167969 925.453125 C 296.585938 929.914062 300.050781 934.339844 303.460938 938.808594 C 305.074219 940.917969 306.878906 943.019531 308.359375 945.285156 C 307.425781 941.574219 306.519531 937.859375 305.570312 934.148438 C 301.015625 916.316406 296.640625 898.324219 289.855469 881.175781 C 283.226562 864.414062 274.40625 848.671875 265.34375 833.128906 C 265.105469 832.71875 265.765625 832.425781 266.007812 832.820312 C 273.46875 845.085938 281.035156 857.335938 287.304688 870.265625 C 290.8125 877.492188 293.753906 884.921875 296.347656 892.488281 C 293.296875 876.273438 289.644531 860.707031 284.3125 845.011719 C 284.265625 844.871094 284.464844 844.769531 284.523438 844.910156 C 291.027344 860.304688 295.710938 877.613281 297.015625 894.296875 C 297.015625 894.328125 297 894.351562 296.988281 894.375 C 298.519531 898.957031 299.925781 903.585938 301.238281 908.25 C 306.796875 927.996094 311.679688 947.953125 316.207031 967.976562 C 316.132812 954.753906 315.296875 941.769531 312.800781 928.726562 C 312.746094 928.425781 313.191406 928.355469 313.265625 928.644531 C 316.546875 942.082031 318.027344 956.222656 316.671875 970.023438 C 318.382812 977.640625 320.050781 985.261719 321.675781 992.886719 C 325.144531 1009.160156 329.410156 1025.71875 331.433594 1042.242188 C 331.488281 1042.671875 330.894531 1042.757812 330.78125 1042.351562 C 328.363281 1033.445312 326.902344 1024.214844 324.917969 1015.199219 C 322.933594 1006.15625 320.886719 997.125 318.78125 988.105469 C 315.71875 974.972656 312.503906 961.878906 309.234375 948.792969 C 307.050781 943.996094 302.820312 939.734375 299.65625 935.714844 C 296.179688 931.300781 292.707031 926.882812 289.324219 922.394531 C 283.027344 914.039062 277.25 905.359375 272.339844 896.113281 C 272.234375 895.914062 272.542969 895.777344 272.65625 895.964844 Z M 272.65625 895.964844 " fill-opacity="1" fill-rule="nonzero"/><path fill="#263238" d="M 271.148438 880.867188 C 278.804688 890.695312 285.753906 901.570312 291.222656 912.765625 C 291.292969 912.910156 291.070312 913.0625 290.980469 912.921875 C 284.222656 902.335938 277.582031 891.664062 270.839844 881.070312 C 270.726562 880.890625 271.019531 880.703125 271.148438 880.867188 Z M 271.148438 880.867188 " fill-opacity="1" fill-rule="nonzero"/><path fill="#42a200" d="M 421.410156 849.410156 C 416.835938 857.289062 411.617188 866.75 413.578125 876.207031 C 414.824219 882.199219 419.207031 887.058594 419.996094 893.164062 C 421.769531 906.648438 408.332031 915.558594 398.609375 921.925781 C 374.371094 937.832031 341.128906 952.007812 336.722656 984.484375 C 336.558594 985.636719 334.566406 985.347656 334.714844 984.21875 C 334.714844 984.148438 334.738281 984.078125 334.761719 984.003906 C 334.714844 983.933594 334.640625 983.910156 334.640625 983.8125 C 331.503906 967.359375 331.574219 950.59375 335.09375 934.214844 C 338.710938 917.472656 346.015625 902.429688 354.640625 887.726562 C 369.222656 862.84375 384.671875 837.359375 406.730469 818.296875 C 412.835938 813.027344 425.339844 803.546875 430.203125 815.449219 C 434.921875 827.015625 427.015625 839.804688 421.410156 849.410156 Z M 421.410156 849.410156 " fill-opacity="1" fill-rule="nonzero"/><path fill="#263238" d="M 399.226562 902.167969 C 383.15625 919.566406 357.609375 929.320312 343.773438 948.804688 C 351.972656 918.9375 365.535156 892.082031 386.394531 868.753906 C 386.929688 868.15625 386.09375 867.304688 385.507812 867.867188 C 370.242188 882.539062 358.933594 899.695312 350.683594 918.304688 C 354.390625 905.015625 359.582031 892.449219 365.679688 879.953125 C 365.910156 879.480469 365.242188 879.074219 364.96875 879.535156 C 357.203125 892.78125 352.039062 907.652344 348.804688 922.648438 C 330.582031 966.773438 328.890625 1018.519531 332.710938 1065.027344 C 332.765625 1065.691406 333.777344 1065.710938 333.757812 1065.027344 C 332.710938 1028.375 333.304688 991.085938 342.085938 955.292969 C 342.269531 954.546875 342.472656 953.808594 342.664062 953.0625 C 357.710938 932.085938 383.152344 922.363281 399.507812 902.445312 C 399.664062 902.257812 399.402344 901.980469 399.226562 902.167969 Z M 399.226562 902.167969 " fill-opacity="1" fill-rule="nonzero"/><path fill="#263238" d="M 402.953125 887.230469 C 394.515625 894.96875 386.210938 902.882812 377.761719 910.621094 C 377.675781 910.695312 377.789062 910.847656 377.890625 910.78125 C 387.085938 904.558594 396.425781 896.332031 403.457031 887.734375 C 403.742188 887.382812 403.296875 886.914062 402.953125 887.230469 Z M 402.953125 887.230469 " fill-opacity="1" fill-rule="nonzero"/><path fill="#263238" d="M 404.285156 853.699219 C 396.625 865.976562 388.585938 877.496094 379.042969 888.414062 C 378.917969 888.5625 379.117188 888.761719 379.257812 888.628906 C 389.5 878.757812 398.601562 866.828125 404.738281 853.960938 C 404.878906 853.660156 404.464844 853.40625 404.285156 853.699219 Z M 404.285156 853.699219 " fill-opacity="1" fill-rule="nonzero"/><path fill="#455a64" d="M 366.304688 1097.832031 L 292.414062 1097.832031 L 302.371094 998.414062 L 354.925781 998.414062 Z M 366.304688 1097.832031 " fill-opacity="1" fill-rule="nonzero"/><path fill="#263238" d="M 356.777344 1014.574219 L 300.742188 1014.574219 L 302.363281 998.414062 L 354.929688 998.414062 Z M 356.777344 1014.574219 " fill-opacity="1" fill-rule="nonzero"/><path fill="#455a64" d="M 294.726562 1003.273438 L 363.992188 1003.273438 L 363.992188 987.398438 L 294.726562 987.398438 Z M 294.726562 1003.273438 " fill-opacity="1" fill-rule="nonzero"/><path fill="#263238" d="M 1181.210938 419.972656 L 1167.898438 419.972656 L 1167.898438 1084.519531 L 1181.210938 1084.519531 Z M 1181.210938 419.972656 " fill-opacity="1" fill-rule="nonzero"/><path fill="#263238" d="M 1263.894531 501.242188 L 947.625 184.957031 L 938.210938 194.371094 L 1254.480469 510.65625 Z M 1263.894531 501.242188 " fill-opacity="1" fill-rule="nonzero"/><path fill="#263238" d="M 1246.707031 1097.832031 L 1246.707031 1084.519531 L 1102.402344 1084.519531 L 1102.402344 1097.832031 Z M 1246.707031 1097.832031 " fill-opacity="1" fill-rule="nonzero"/><path fill="#000000" d="M 936.855469 234.027344 L 892.253906 192.128906 L 934.253906 158.015625 L 967.65625 189.425781 Z M 936.855469 234.027344 " fill-opacity="1" fill-rule="nonzero"/><path fill="#000000" d="M 892.253906 192.121094 L 936.855469 234.019531 L 949.101562 216.285156 L 910.871094 177.011719 Z M 892.253906 192.121094 " fill-opacity="0.1" fill-rule="nonzero"/><path fill="#404040" d="M 941.472656 304 L 821.09375 190.886719 L 878.589844 159.925781 L 968.800781 244.691406 Z M 941.472656 304 " fill-opacity="1" fill-rule="nonzero"/><path fill="#dbdbdb" d="M 471.90625 661.875 C 471.90625 661.875 514.671875 642.171875 514.671875 615.761719 C 514.671875 589.351562 459.207031 572.351562 459.207031 551.707031 C 459.207031 531.066406 483.398438 518.921875 483.398438 518.921875 C 483.398438 518.921875 445.191406 531.976562 445.191406 558.082031 C 445.191406 584.191406 481.753906 601.882812 485.25 618.496094 C 490.109375 641.566406 471.90625 661.875 471.90625 661.875 Z M 471.90625 661.875 " fill-opacity="0.6" fill-rule="nonzero"/><path fill="#dbdbdb" d="M 474.015625 661.875 C 474.015625 661.875 431.246094 646.382812 431.246094 625.617188 C 431.246094 604.851562 486.714844 591.484375 486.714844 575.257812 C 486.714844 559.027344 462.523438 549.476562 462.523438 549.476562 C 462.523438 549.476562 500.730469 559.738281 500.730469 580.269531 C 500.730469 600.796875 458.746094 614.90625 455.742188 631.585938 C 452.796875 647.941406 474.015625 661.875 474.015625 661.875 Z M 474.015625 661.875 " fill-opacity="0.6" fill-rule="nonzero"/><path fill="#00396c" d="M 492.699219 728.285156 L 452.015625 728.285156 L 452.015625 734.632812 L 492.699219 734.632812 Z M 492.699219 728.285156 " fill-opacity="1" fill-rule="nonzero"/><path fill="#000000" d="M 492.699219 728.285156 L 452.015625 728.285156 L 452.015625 732.472656 L 492.699219 732.472656 Z M 492.699219 728.285156 " fill-opacity="0.1" fill-rule="nonzero"/><path fill="#00396c" d="M 403.722656 711.214844 C 408.535156 717.976562 417.050781 722.816406 426.632812 721.011719 C 427.992188 720.753906 429.359375 720.375 430.761719 719.828125 C 432.65625 719.09375 434.566406 718.109375 436.511719 716.800781 L 431.34375 709.140625 C 430.292969 709.871094 429.273438 710.4375 428.289062 710.871094 C 418.601562 715.265625 412.472656 707.628906 411.261719 705.882812 C 405.6875 698.046875 403.691406 680.144531 409.339844 673.257812 C 409.714844 672.75 411.347656 671.945312 417.898438 673.339844 C 419.109375 673.613281 420.476562 673.914062 422.03125 674.34375 C 423.75 674.832031 424.773438 675.109375 425.75 675.144531 L 425.914062 670.542969 L 426.363281 665.953125 C 425.941406 665.875 425.28125 665.6875 424.421875 665.441406 C 421.949219 664.78125 418.617188 663.875 415.171875 663.523438 C 410.351562 663.023438 405.296875 663.601562 402.195312 667.410156 C 393.019531 678.652344 396.742188 701.390625 403.722656 711.214844 Z M 403.722656 711.214844 " fill-opacity="1" fill-rule="nonzero"/><path fill="#000000" d="M 431.34375 709.140625 C 430.292969 709.871094 429.273438 710.4375 428.289062 710.871094 L 430.761719 719.828125 C 432.65625 719.09375 434.566406 718.109375 436.511719 716.800781 Z M 431.34375 709.140625 " fill-opacity="0.1" fill-rule="nonzero"/><path fill="#000000" d="M 415.171875 663.523438 L 417.898438 673.339844 C 419.109375 673.613281 420.476562 673.914062 422.03125 674.34375 C 423.75 674.832031 424.773438 675.109375 425.75 675.144531 L 425.914062 670.542969 L 426.363281 665.953125 C 425.941406 665.875 425.28125 665.6875 424.421875 665.441406 C 421.949219 664.78125 418.621094 663.878906 415.171875 663.523438 Z M 415.171875 663.523438 " fill-opacity="0.1" fill-rule="nonzero"/><path fill="#00396c" d="M 526.484375 651.542969 C 526.484375 651.542969 526.132812 654.570312 525.433594 659.34375 C 525.304688 660.078125 525.210938 660.871094 525.082031 661.667969 C 524.605469 664.949219 523.96875 668.832031 523.238281 673.003906 C 523.207031 673.226562 523.140625 673.480469 523.109375 673.734375 C 522.027344 679.722656 520.722656 686.246094 519.195312 692.394531 C 519.128906 692.679688 519.035156 692.9375 518.972656 693.191406 C 518.558594 694.847656 518.113281 696.46875 517.664062 698.03125 C 517.21875 699.589844 516.742188 701.117188 516.261719 702.582031 C 515.273438 705.511719 514.257812 708.1875 513.175781 710.445312 C 504.738281 727.894531 492.957031 729.835938 485.667969 729.835938 C 478.34375 729.835938 479.011719 729.835938 472.359375 729.835938 C 465.703125 729.835938 466.402344 729.835938 459.050781 729.835938 C 451.761719 729.835938 439.976562 727.894531 431.570312 710.445312 C 431.316406 709.902344 431.0625 709.332031 430.808594 708.726562 C 430.613281 708.3125 430.425781 707.867188 430.265625 707.421875 C 430.074219 706.972656 429.882812 706.527344 429.722656 706.050781 C 429.59375 705.730469 429.46875 705.382812 429.339844 705.0625 C 427.714844 700.605469 426.253906 695.351562 424.976562 689.9375 C 424.914062 689.71875 424.851562 689.523438 424.816406 689.304688 C 424.785156 689.207031 424.785156 689.144531 424.753906 689.050781 C 424.242188 686.886719 423.765625 684.6875 423.320312 682.523438 C 422.558594 678.957031 421.890625 675.457031 421.316406 672.109375 C 421.0625 670.582031 420.804688 669.085938 420.550781 667.652344 C 420.488281 667.238281 420.425781 666.855469 420.359375 666.476562 C 420.199219 665.519531 420.042969 664.566406 419.914062 663.671875 C 419.785156 662.78125 419.65625 661.921875 419.53125 661.09375 C 419.402344 660.265625 419.308594 659.472656 419.183594 658.738281 C 418.542969 654.3125 418.226562 651.542969 418.226562 651.542969 Z M 526.484375 651.542969 " fill-opacity="1" fill-rule="nonzero"/><path fill="#000000" d="M 523.105469 673.738281 C 522.023438 679.722656 520.71875 686.25 519.191406 692.394531 C 518.523438 692.492188 517.851562 692.621094 517.183594 692.777344 C 513.96875 693.542969 510.816406 694.847656 508.046875 696.726562 C 505.246094 698.542969 502.761719 700.835938 500.402344 703.09375 C 498.015625 705.355469 495.660156 707.648438 492.984375 709.398438 C 490.3125 711.152344 487.257812 712.199219 484.070312 712.296875 C 480.984375 712.457031 478.183594 710.640625 475.953125 708.445312 C 473.660156 706.183594 471.75 703.539062 469.875 700.867188 C 467.996094 698.191406 466.117188 695.453125 463.886719 692.90625 C 462.773438 691.664062 461.53125 690.453125 460.132812 689.464844 C 459.398438 688.988281 458.570312 688.605469 457.777344 688.257812 C 456.882812 688.097656 456.023438 687.683594 455.132812 687.808594 C 453.320312 687.648438 451.601562 688.351562 450.039062 689.085938 C 448.542969 689.945312 447.171875 690.929688 445.964844 692.109375 C 443.480469 694.367188 441.378906 696.949219 439.179688 699.367188 C 436.984375 701.691406 434.660156 704.242188 431.632812 704.972656 C 430.871094 705.164062 430.105469 705.195312 429.34375 705.070312 C 427.71875 700.609375 426.253906 695.355469 424.980469 689.945312 C 425.839844 689.722656 426.734375 689.5 427.589844 689.210938 C 430.742188 688.164062 433.734375 686.539062 436.316406 684.402344 C 438.925781 682.300781 441.15625 679.820312 443.320312 677.335938 C 445.484375 674.851562 447.585938 672.335938 450.070312 670.332031 C 452.554688 668.324219 455.511719 666.988281 458.664062 666.574219 C 461.722656 666.128906 464.683594 667.65625 467.136719 669.628906 C 469.621094 671.636719 471.753906 674.085938 473.886719 676.570312 C 476.050781 679.054688 478.183594 681.597656 480.636719 683.921875 C 481.847656 685.070312 483.214844 686.121094 484.710938 686.980469 C 485.476562 687.394531 486.335938 687.679688 487.164062 687.96875 C 488.058594 688.03125 488.980469 688.351562 489.871094 688.15625 C 491.6875 688.125 493.308594 687.234375 494.773438 686.375 C 496.175781 685.386719 497.480469 684.242188 498.566406 682.96875 C 500.824219 680.484375 502.640625 677.714844 504.617188 675.101562 C 506.558594 672.558594 508.628906 669.816406 511.554688 668.765625 C 514.546875 667.71875 517.730469 669.371094 520.214844 671.347656 C 521.195312 672.113281 522.152344 672.910156 523.105469 673.738281 Z M 523.105469 673.738281 " fill-opacity="0.1" fill-rule="nonzero"/><path fill="#ffffff" d="M 523.234375 673.003906 C 523.203125 673.226562 523.140625 673.480469 523.105469 673.734375 C 522.152344 672.90625 521.195312 672.109375 520.207031 671.347656 C 517.726562 669.371094 514.539062 667.71875 511.546875 668.765625 C 508.617188 669.816406 506.550781 672.558594 504.609375 675.101562 C 502.632812 677.714844 500.820312 680.484375 498.558594 682.96875 C 497.476562 684.242188 496.171875 685.386719 494.769531 686.375 C 493.304688 687.234375 491.679688 688.128906 489.863281 688.15625 C 488.972656 688.351562 488.050781 688.03125 487.15625 687.96875 C 486.328125 687.683594 485.46875 687.394531 484.707031 686.980469 C 483.210938 686.121094 481.839844 685.070312 480.628906 683.921875 C 478.175781 681.597656 476.046875 679.050781 473.878906 676.570312 C 471.746094 674.085938 469.613281 671.632812 467.128906 669.628906 C 464.675781 667.65625 461.714844 666.128906 458.65625 666.574219 C 455.507812 666.988281 452.546875 668.324219 450.0625 670.332031 C 447.578125 672.335938 445.476562 674.855469 443.3125 677.335938 C 441.148438 679.820312 438.917969 682.300781 436.308594 684.402344 C 433.730469 686.539062 430.734375 688.160156 427.582031 689.210938 C 426.722656 689.5 425.832031 689.722656 424.972656 689.945312 C 424.910156 689.722656 424.84375 689.53125 424.8125 689.308594 C 425.640625 689.054688 426.5 688.796875 427.328125 688.480469 C 433.570312 686.378906 438.3125 681.632812 442.359375 676.539062 C 444.460938 674.023438 446.558594 671.414062 449.203125 669.246094 C 451.8125 667.117188 455.0625 665.617188 458.4375 665.140625 C 462.070312 664.597656 465.476562 666.382812 468.054688 668.453125 C 470.730469 670.554688 472.925781 673.066406 475.089844 675.550781 C 477.253906 678.035156 479.324219 680.582031 481.648438 682.8125 C 483.972656 684.945312 486.710938 687.046875 489.738281 686.695312 C 492.792969 686.539062 495.4375 684.4375 497.539062 682.046875 C 499.703125 679.660156 501.582031 676.953125 503.617188 674.34375 C 505.6875 671.828125 507.851562 668.964844 511.261719 667.816406 C 512.949219 667.210938 514.792969 667.496094 516.386719 668.101562 C 517.980469 668.707031 519.382812 669.695312 520.683594 670.742188 C 521.578125 671.476562 522.40625 672.210938 523.234375 673.003906 Z M 523.234375 673.003906 " fill-opacity="1" fill-rule="nonzero"/><path fill="#ffffff" d="M 519.191406 692.394531 C 519.128906 692.679688 519.03125 692.9375 518.96875 693.191406 C 518.425781 693.285156 517.886719 693.410156 517.378906 693.539062 C 510.976562 695.035156 505.785156 699.273438 501.234375 703.953125 C 498.910156 706.277344 496.585938 708.664062 493.753906 710.542969 C 490.917969 712.421875 487.578125 713.597656 484.136719 713.726562 C 480.503906 713.949219 477.257812 711.847656 474.902344 709.523438 C 472.449219 707.167969 470.507812 704.460938 468.566406 701.789062 C 466.6875 699.082031 464.871094 696.34375 462.738281 693.925781 C 460.667969 691.566406 458.125 689.210938 455.097656 689.246094 C 452.039062 689.117188 449.207031 690.964844 446.882812 693.128906 C 444.496094 695.292969 442.359375 697.808594 440.066406 700.195312 C 437.777344 702.488281 435.355469 705.132812 431.855469 705.957031 C 431.152344 706.117188 430.421875 706.148438 429.71875 706.054688 C 429.589844 705.738281 429.464844 705.386719 429.335938 705.070312 C 430.101562 705.195312 430.867188 705.164062 431.628906 704.972656 C 434.65625 704.242188 436.980469 701.691406 439.175781 699.367188 C 441.375 696.949219 443.472656 694.371094 445.957031 692.109375 C 447.167969 690.929688 448.539062 689.941406 450.035156 689.085938 C 451.59375 688.351562 453.316406 687.652344 455.128906 687.808594 C 456.019531 687.683594 456.882812 688.097656 457.769531 688.257812 C 458.566406 688.605469 459.394531 688.988281 460.125 689.464844 C 461.527344 690.453125 462.769531 691.664062 463.882812 692.90625 C 466.109375 695.453125 467.992188 698.191406 469.867188 700.867188 C 471.746094 703.539062 473.65625 706.183594 475.949219 708.445312 C 478.175781 710.640625 480.980469 712.457031 484.066406 712.296875 C 487.25 712.199219 490.308594 711.152344 492.980469 709.398438 C 495.65625 707.648438 498.011719 705.355469 500.398438 703.09375 C 502.753906 700.835938 505.238281 698.542969 508.042969 696.726562 C 510.8125 694.847656 513.964844 693.542969 517.179688 692.777344 C 517.851562 692.617188 518.523438 692.488281 519.191406 692.394531 Z M 519.191406 692.394531 " fill-opacity="1" fill-rule="nonzero"/><path fill="#c7c7c7" d="M 949.828125 944.871094 L 1138.003906 1096.605469 L 1127.402344 1096.605469 L 910.074219 944.871094 Z M 949.828125 944.871094 " fill-opacity="1" fill-rule="nonzero"/><path fill="#c7c7c7" d="M 932.148438 944.871094 L 1025.132812 1096.605469 L 1014.53125 1096.605469 L 900.566406 944.871094 Z M 932.148438 944.871094 " fill-opacity="1" fill-rule="nonzero"/><path fill="#c7c7c7" d="M 886.558594 944.871094 L 793.574219 1096.605469 L 804.179688 1096.605469 L 918.144531 944.871094 Z M 886.558594 944.871094 " fill-opacity="1" fill-rule="nonzero"/><path fill="#c7c7c7" d="M 870.316406 944.871094 L 682.140625 1096.605469 L 692.742188 1096.605469 L 910.074219 944.871094 Z M 870.316406 944.871094 " fill-opacity="1" fill-rule="nonzero"/><path fill="#455a64" d="M 556.25 889.210938 L 556.25 844.816406 L 814.660156 834.214844 L 951.152344 469.792969 L 1263.894531 469.792969 L 1153.242188 889.210938 L 888.867188 963.421875 L 872.304688 963.421875 Z M 556.25 889.210938 " fill-opacity="1" fill-rule="nonzero"/><path fill="#37474f" d="M 1263.894531 469.792969 L 1228.113281 469.792969 L 1112.824219 852.109375 L 878.929688 918.367188 L 556.25 844.816406 L 556.25 889.210938 L 872.304688 963.421875 L 888.867188 963.421875 L 1153.242188 889.210938 Z M 1263.894531 469.792969 " fill-opacity="1" fill-rule="nonzero"/><path fill="#ebebeb" d="M 366.210938 1095.082031 C 374.550781 1095.269531 590.800781 1028.421875 597.425781 1020.675781 C 598.140625 1019.820312 594.765625 987.796875 589.179688 962.378906 C 588.921875 961.164062 665.972656 860.203125 665.972656 860.203125 L 526.65625 806.007812 L 460.011719 944.101562 L 442.671875 980.011719 C 442.671875 980.011719 370.53125 1052.535156 364.144531 1061.824219 C 357.832031 1071.121094 357.871094 1094.890625 366.210938 1095.082031 Z M 366.210938 1095.082031 " fill-opacity="1" fill-rule="nonzero"/><path fill="#00396c" d="M 360.121094 1096.296875 C 368.816406 1096.53125 594.574219 1027.613281 601.523438 1019.546875 C 604.175781 1016.5 600.136719 1002.535156 589.179688 962.378906 L 441.167969 980.199219 C 441.167969 980.199219 364.78125 1051.933594 358.109375 1061.601562 C 351.488281 1071.25 351.429688 1096.0625 360.121094 1096.296875 Z M 360.121094 1096.296875 " fill-opacity="1" fill-rule="nonzero"/><path fill="#263238" d="M 360.601562 1086.277344 C 398.160156 1073.796875 550.835938 1027 588.910156 1017.519531 C 589.21875 1017.4375 589.285156 1017.648438 588.984375 1017.753906 C 552.027344 1030.941406 398.976562 1076.496094 360.789062 1086.898438 C 359.988281 1087.117188 359.808594 1086.542969 360.601562 1086.277344 Z M 360.601562 1086.277344 " fill-opacity="1" fill-rule="nonzero"/><path fill="#263238" d="M 370.152344 1049.046875 C 379.015625 1045.941406 389.085938 1047.527344 395.613281 1051.378906 C 401.882812 1055.078125 408.109375 1061.074219 410.238281 1069 C 410.300781 1069.226562 409.886719 1069.363281 409.78125 1069.140625 C 403.097656 1054.992188 385.65625 1046.09375 370.296875 1049.523438 C 369.984375 1049.589844 369.847656 1049.152344 370.152344 1049.046875 Z M 370.152344 1049.046875 " fill-opacity="1" fill-rule="nonzero"/><path fill="#263238" d="M 425.886719 995.128906 C 440.96875 990.296875 460.160156 990.28125 473.355469 999.796875 C 473.867188 1000.167969 473.335938 1000.886719 472.816406 1000.792969 C 456.96875 997.914062 442.347656 996.628906 426.195312 997.074219 C 425.054688 997.105469 424.804688 995.476562 425.886719 995.128906 Z M 425.886719 995.128906 " fill-opacity="1" fill-rule="nonzero"/><path fill="#263238" d="M 415.582031 1003.257812 C 430.667969 998.425781 449.859375 998.410156 463.054688 1007.925781 C 463.566406 1008.292969 463.03125 1009.015625 462.511719 1008.921875 C 446.664062 1006.042969 432.042969 1004.757812 415.890625 1005.203125 C 414.753906 1005.234375 414.503906 1003.605469 415.582031 1003.257812 Z M 415.582031 1003.257812 " fill-opacity="1" fill-rule="nonzero"/><path fill="#263238" d="M 405.28125 1011.386719 C 420.363281 1006.550781 439.558594 1006.539062 452.753906 1016.054688 C 453.265625 1016.421875 452.734375 1017.144531 452.210938 1017.050781 C 436.363281 1014.171875 421.742188 1012.886719 405.589844 1013.332031 C 404.453125 1013.363281 404.203125 1011.734375 405.28125 1011.386719 Z M 405.28125 1011.386719 " fill-opacity="1" fill-rule="nonzero"/><path fill="#263238" d="M 394.980469 1019.515625 C 410.0625 1014.679688 429.257812 1014.667969 442.449219 1024.179688 C 442.960938 1024.550781 442.429688 1025.269531 441.910156 1025.175781 C 426.0625 1022.296875 411.441406 1021.011719 395.289062 1021.457031 C 394.148438 1021.492188 393.902344 1019.863281 394.980469 1019.515625 Z M 394.980469 1019.515625 " fill-opacity="1" fill-rule="nonzero"/><path fill="#263238" d="M 397.179688 959.707031 C 402.902344 951.011719 414.460938 954.273438 421.203125 959.433594 C 432.121094 967.789062 441.957031 981.167969 446.789062 993.96875 C 446.90625 994.28125 446.703125 994.488281 446.445312 994.542969 C 446.453125 995.726562 445.449219 997.03125 444.09375 996.597656 C 431.035156 992.429688 416.554688 989.59375 405.160156 981.542969 C 398.511719 976.839844 391.761719 967.933594 397.179688 959.707031 Z M 425.589844 986.230469 C 431.960938 988.433594 438.40625 990.316406 444.695312 992.753906 C 439.6875 986.035156 434.992188 979.128906 429.3125 972.914062 C 426.597656 969.949219 423.753906 966.957031 420.660156 964.386719 C 415.84375 960.390625 397.109375 952.269531 400.632812 969.210938 C 402.574219 978.546875 417.992188 983.597656 425.589844 986.230469 Z M 425.589844 986.230469 " fill-opacity="1" fill-rule="nonzero"/><path fill="#263238" d="M 486.136719 988.09375 C 473.566406 994.148438 458.816406 994.542969 445.246094 996.488281 C 443.839844 996.691406 443.066406 995.242188 443.269531 994.074219 C 443.027344 993.976562 442.859375 993.738281 443.027344 993.449219 C 449.914062 981.625 461.832031 970.0625 473.984375 963.632812 C 481.488281 959.664062 493.425781 958.359375 497.632812 967.886719 C 501.609375 976.898438 493.476562 984.558594 486.136719 988.09375 Z M 492.652344 976.679688 C 498.933594 960.558594 479.113281 965.464844 473.699219 968.609375 C 470.21875 970.632812 466.917969 973.113281 463.753906 975.585938 C 457.121094 980.773438 451.347656 986.804688 445.292969 992.601562 C 451.902344 991.238281 458.566406 990.449219 465.222656 989.332031 C 473.148438 987.996094 489.1875 985.570312 492.652344 976.679688 Z M 492.652344 976.679688 " fill-opacity="1" fill-rule="nonzero"/><path fill="#263238" d="M 452.960938 950.546875 L 606.539062 973.230469 C 606.539062 973.230469 690.347656 821.046875 724.195312 783.199219 L 724.28125 783.132812 C 726.5 780.636719 728.574219 778.617188 730.46875 777.085938 L 730.535156 777.0625 C 732.679688 775.835938 736.421875 774.917969 741.617188 774.292969 L 741.679688 774.273438 C 787.089844 768.753906 939.929688 783.605469 1045.542969 776.789062 L 996.222656 710.859375 L 974.363281 681.613281 C 855.382812 668.042969 709.371094 619.398438 643.484375 652.445312 C 571.917969 688.347656 452.960938 950.546875 452.960938 950.546875 Z M 452.960938 950.546875 " fill-opacity="1" fill-rule="nonzero"/><path fill="#37474f" d="M 472.207031 924.464844 C 498.3125 927.824219 490.863281 926.511719 516.933594 930.148438 C 529.691406 931.929688 593.832031 940.726562 605.457031 944.367188 C 605.710938 944.449219 605.648438 944.867188 605.378906 944.871094 C 593.199219 944.964844 529.265625 934.785156 516.542969 932.773438 C 490.542969 928.660156 498.050781 929.574219 472.097656 925.183594 C 471.613281 925.101562 471.71875 924.398438 472.207031 924.464844 Z M 472.207031 924.464844 " fill-opacity="1" fill-rule="nonzero"/><path fill="#37474f" d="M 605.75 942.21875 C 623.132812 913.160156 702.265625 769.730469 718.015625 764.082031 C 732.347656 758.941406 1019.191406 764.90625 1023.433594 764.933594 C 1023.738281 764.9375 1023.761719 765.40625 1023.457031 765.402344 C 989.503906 764.96875 727.316406 764.035156 719.839844 766.992188 C 704.292969 773.140625 609.664062 939.527344 607.339844 943 C 606.71875 943.929688 605.15625 943.21875 605.75 942.21875 Z M 605.75 942.21875 " fill-opacity="1" fill-rule="nonzero"/><path fill="#263238" d="M 1125.765625 716.800781 C 1125.765625 716.800781 1134.835938 803.292969 1090.949219 846.316406 C 1038.425781 897.800781 691.8125 884.796875 638.097656 867.433594 C 584.378906 850.074219 582.703125 763.394531 641.421875 743.308594 C 697.269531 724.207031 944.941406 713.222656 950.808594 710.886719 C 956.675781 708.542969 973.84375 681.136719 973.84375 681.136719 Z M 1125.765625 716.800781 " fill-opacity="1" fill-rule="nonzero"/><path fill="#37474f" d="M 1052.414062 714.363281 C 1052.484375 713.949219 1053.125 714.082031 1053.125 714.476562 C 1053.078125 725.398438 1057.125 736.890625 1064.296875 745.171875 C 1072.523438 754.671875 1084.652344 759.988281 1095.640625 765.546875 C 1096.699219 766.082031 1095.898438 767.734375 1094.804688 767.410156 C 1088.105469 765.398438 1081.503906 762.476562 1075.398438 759.046875 C 1069.835938 755.921875 1064.695312 752.003906 1060.800781 746.910156 C 1053.613281 737.519531 1050.472656 726.070312 1052.414062 714.363281 Z M 1052.414062 714.363281 " fill-opacity="1" fill-rule="nonzero"/><path fill="#37474f" d="M 953.171875 705.492188 C 955.625 702.359375 958.296875 699.378906 960.855469 696.335938 C 966.90625 689.132812 972.988281 681.902344 979.332031 674.953125 C 979.933594 674.296875 981.105469 675.230469 980.554688 675.949219 C 976.285156 681.53125 971.761719 686.941406 967.316406 692.382812 C 965.035156 695.175781 962.75 697.957031 960.445312 700.730469 C 958.289062 703.316406 955.625 705.882812 954.03125 708.863281 C 952.375 711.960938 954.554688 714.605469 957.761719 714.949219 C 960.632812 715.253906 963.285156 713.792969 965.488281 712.105469 C 970.496094 708.269531 974.433594 702.78125 978.597656 698.09375 C 981.148438 695.226562 983.691406 692.363281 986.28125 689.527344 C 989.03125 686.515625 991.964844 683.664062 994.707031 680.65625 C 994.882812 680.460938 995.222656 680.730469 995.066406 680.945312 C 992.667969 684.230469 990.457031 687.671875 988.050781 690.964844 C 985.652344 694.257812 983.21875 697.515625 980.738281 700.75 C 978.390625 703.8125 975.964844 706.808594 973.464844 709.746094 C 971.34375 712.242188 968.929688 714.675781 966.085938 716.347656 C 961.488281 719.050781 953.511719 719.632812 951.066406 713.699219 C 949.859375 710.773438 951.367188 707.800781 953.171875 705.492188 Z M 953.171875 705.492188 " fill-opacity="1" fill-rule="nonzero"/><path fill="#37474f" d="M 645.441406 867.761719 C 663.9375 868.105469 682.417969 869.179688 700.914062 869.578125 C 719.261719 869.96875 737.613281 870.070312 755.964844 869.898438 C 792.816406 869.550781 829.65625 868.144531 866.429688 865.605469 C 903.585938 863.035156 943.65625 859.335938 980.5625 854.222656 C 998.222656 851.777344 1016.125 849.738281 1033.578125 845.988281 C 1049.324219 842.601562 1063.605469 836.058594 1075.390625 824.625 C 1099.296875 801.441406 1108.589844 767.355469 1112.40625 734.789062 C 1112.917969 730.417969 1113.335938 726.042969 1113.691406 721.65625 C 1113.71875 721.355469 1114.164062 721.363281 1114.144531 721.667969 C 1111.988281 755.0625 1106.796875 789.875 1085.792969 816.71875 C 1076.707031 828.335938 1065.140625 837.851562 1051.578125 843.285156 C 1035.050781 849.90625 1016.703125 851.460938 999.253906 853.828125 C 962.199219 858.855469 921.964844 862.734375 884.695312 865.628906 C 847.191406 868.535156 809.59375 870.351562 771.988281 870.90625 C 734.382812 871.460938 696.738281 870.929688 659.167969 869.082031 C 654.582031 868.855469 650.007812 868.589844 645.429688 868.1875 C 645.171875 868.15625 645.179688 867.753906 645.441406 867.761719 Z M 645.441406 867.761719 " fill-opacity="1" fill-rule="nonzero"/><path fill="#37474f" d="M 596.066406 786.929688 C 599.59375 772.269531 608.421875 759.976562 620.835938 751.503906 C 634.144531 742.414062 650.070312 738.277344 665.832031 735.984375 C 683.664062 733.386719 701.722656 732.066406 719.65625 730.324219 C 756.449219 726.75 793.273438 723.453125 830.117188 720.421875 C 866.9375 717.390625 946.246094 711.234375 950.707031 711.058594 C 951.09375 711.046875 951.175781 711.703125 950.785156 711.746094 C 915.238281 715.699219 882.898438 719.089844 847.285156 722.324219 C 811.496094 725.574219 775.714844 728.984375 739.953125 732.519531 C 722.136719 734.28125 704.316406 736.0625 686.507812 737.902344 C 670.003906 739.609375 653.027344 741.289062 637.542969 747.664062 C 624.261719 753.132812 612.320312 761.929688 605.542969 774.851562 C 599 787.332031 597.621094 802.25 600.238281 815.976562 C 602.667969 828.71875 608.664062 841.136719 617.421875 850.746094 C 626.050781 860.210938 636.996094 867.460938 649.617188 870.183594 C 652.871094 870.886719 656.804688 871.386719 659.800781 871.988281 C 660.027344 872.03125 660.261719 872.515625 660.03125 872.519531 C 633.410156 873.191406 608.78125 853.753906 599.167969 829.433594 C 593.871094 816.03125 592.691406 800.957031 596.066406 786.929688 Z M 596.066406 786.929688 " fill-opacity="1" fill-rule="nonzero"/><path fill="#eb9481" d="M 1022.273438 503.949219 C 1004.660156 573.003906 969.648438 655.445312 955.234375 668.617188 C 937.007812 685.277344 825.492188 707.140625 819.605469 707.714844 C 809.933594 708.65625 789.996094 609.261719 799.03125 609.464844 C 822.890625 610 896.382812 602.527344 901.65625 597.363281 C 907.128906 591.96875 944.453125 547.148438 982.953125 496.417969 C 1009.519531 461.355469 1033.199219 461.101562 1022.273438 503.949219 Z M 1022.273438 503.949219 " fill-opacity="1" fill-rule="nonzero"/><path fill="#eb9481" d="M 828.652344 703.578125 C 827.035156 704.347656 804.09375 715.207031 789.980469 718.929688 C 779.453125 721.710938 748.925781 728.902344 744.714844 717.613281 C 741.832031 709.917969 759.285156 703.578125 771.527344 698.816406 C 777.976562 696.308594 786.003906 689.8125 784.222656 685.664062 C 781.101562 678.40625 764.492188 685.222656 753.53125 691.242188 C 732.339844 702.886719 703.972656 724.078125 691.457031 713.167969 C 686.734375 709.042969 692.507812 701.878906 700.882812 694.921875 C 687.378906 702.941406 673.023438 709.441406 667.59375 705.070312 C 664.476562 702.578125 664.40625 699.261719 666.265625 695.515625 C 662.128906 696.753906 658.503906 696.402344 656.039062 693.667969 C 651.816406 689.039062 654.089844 682.410156 658.984375 675.675781 C 657.472656 675.480469 656.125 674.675781 655.121094 673 C 646.296875 658.820312 693.09375 619.832031 709.035156 616.460938 C 755.9375 606.492188 805.027344 609.738281 805.027344 609.738281 C 822.988281 624.816406 828.6875 703.546875 828.652344 703.578125 Z M 828.652344 703.578125 " fill-opacity="1" fill-rule="nonzero"/><path fill="#263238" d="M 761.105469 659.003906 C 750.082031 660.457031 739.167969 664.304688 729.707031 670.230469 C 717.699219 677.75 709.636719 686.695312 699.496094 695.65625 C 699.230469 695.890625 699.585938 696.3125 699.855469 696.074219 C 704.6875 691.816406 724.667969 675.851562 729.816406 672.234375 C 739.257812 665.613281 749.726562 661.054688 761.136719 659.191406 C 761.265625 659.171875 761.226562 658.988281 761.105469 659.003906 Z M 761.105469 659.003906 " fill-opacity="1" fill-rule="nonzero"/><path fill="#263238" d="M 752.886719 639.003906 C 740.550781 642.0625 727.910156 645.148438 716.394531 650.675781 C 703.792969 656.71875 693.804688 666.828125 683.984375 676.554688 C 678.089844 682.394531 672.3125 688.355469 666.691406 694.460938 C 666.453125 694.714844 666.792969 695.136719 667.046875 694.878906 C 677.015625 684.832031 687.28125 675.070312 697.84375 665.648438 C 707.78125 656.785156 718.789062 650.082031 731.351562 645.636719 C 738.429688 643.132812 745.6875 641.175781 752.929688 639.226562 C 753.066406 639.183594 753.027344 638.972656 752.886719 639.003906 Z M 752.886719 639.003906 " fill-opacity="1" fill-rule="nonzero"/><path fill="#263238" d="M 740.210938 621.382812 C 728.242188 623.542969 717.800781 625.386719 707.105469 631.515625 C 692.941406 639.628906 679.121094 653.542969 674.273438 658.472656 C 668.917969 663.921875 663.75 669.542969 658.664062 675.246094 C 658.457031 675.476562 658.855469 675.84375 659.070312 675.613281 C 670.675781 663.15625 683.140625 651.359375 696.261719 640.507812 C 702.53125 635.324219 709.316406 630.835938 716.890625 627.785156 C 724.378906 624.773438 732.359375 623.15625 740.222656 621.464844 C 740.277344 621.457031 740.261719 621.375 740.210938 621.382812 Z M 740.210938 621.382812 " fill-opacity="1" fill-rule="nonzero"/><path fill="#00396c" d="M 806.839844 602.800781 L 840.351562 718.558594 C 840.351562 718.558594 939.210938 692.886719 957.617188 673.960938 C 976.027344 655.039062 1011.535156 555.917969 1022.441406 507.722656 C 1033.347656 459.527344 1008.828125 460.136719 985.589844 490.128906 C 962.351562 520.125 904.546875 592.785156 901.375 594.316406 C 898.203125 595.847656 806.839844 602.800781 806.839844 602.800781 Z M 806.839844 602.800781 " fill-opacity="1" fill-rule="nonzero"/><path fill="#263238" d="M 850.996094 667.742188 C 846.929688 654.09375 842.753906 640.46875 839.191406 626.664062 C 837.167969 618.824219 835.101562 610.988281 833.152344 603.128906 C 833.078125 602.832031 833.574219 602.664062 833.675781 602.957031 C 838.300781 616.496094 842.90625 630.085938 846.914062 643.835938 C 850.898438 657.515625 854.996094 671.164062 858.804688 684.898438 C 860.96875 692.707031 862.890625 700.550781 864.582031 708.484375 C 864.617188 708.640625 864.363281 708.730469 864.304688 708.574219 C 859.21875 695.179688 855.09375 681.488281 850.996094 667.742188 Z M 850.996094 667.742188 " fill-opacity="1" fill-rule="nonzero"/><path fill="#000000" d="M 854.605469 714.683594 C 882.667969 706.773438 943.582031 688.394531 957.625 673.972656 C 976.027344 655.035156 1011.542969 555.921875 1022.441406 507.734375 C 1027.664062 484.589844 1024.75 472.675781 1017.703125 469.914062 C 1016.96875 470.242188 1016.207031 470.675781 1015.449219 471.132812 C 979.171875 521.015625 903.859375 640.078125 854.605469 714.683594 Z M 854.605469 714.683594 " fill-opacity="0.1" fill-rule="nonzero"/><path fill="#00396c" d="M 1135.75 731.78125 C 1135.195312 732.34375 926.226562 686.570312 924.289062 684.136719 C 921.585938 680.710938 958.933594 523.578125 998.335938 476.679688 C 1008.1875 464.953125 1039.554688 465.765625 1053.59375 477.601562 C 1123.167969 536.253906 1137.730469 729.753906 1135.75 731.78125 Z M 1135.75 731.78125 " fill-opacity="1" fill-rule="nonzero"/><path fill="#eb9481" d="M 1069.839844 488.84375 C 1111.511719 520.898438 1221.34375 650.5 1198.386719 681.25 C 1175.261719 712.21875 1018.074219 701.757812 972.160156 688.527344 C 958.503906 684.589844 993.550781 597.703125 1008.125 593.398438 C 1020.257812 589.8125 1088.386719 608.304688 1089.613281 604.355469 C 1091 599.898438 1075.914062 571.167969 1051.574219 518.667969 C 1023.507812 458.128906 1051.433594 474.683594 1069.839844 488.84375 Z M 1069.839844 488.84375 " fill-opacity="1" fill-rule="nonzero"/><path fill="#eb9481" d="M 944.082031 583.269531 C 913.714844 584.046875 906.042969 588.910156 880.066406 575.957031 C 863.019531 567.457031 850.28125 574.691406 861.859375 590.761719 C 880.800781 617.046875 920.1875 624.273438 934.5625 622.847656 Z M 944.082031 583.269531 " fill-opacity="1" fill-rule="nonzero"/><path fill="#eb9481" d="M 1027.644531 598.796875 C 1027.644531 598.796875 991.230469 585.796875 958.792969 583.421875 C 936.355469 581.785156 887.15625 583.65625 848.910156 638.835938 C 839.84375 651.925781 836.195312 677.003906 858.777344 661.011719 C 874.8125 649.648438 881.554688 637.597656 892.085938 632.6875 C 892.085938 632.6875 891.238281 665.140625 904.703125 673.714844 C 910.722656 677.546875 927.390625 687.621094 941.492188 693.617188 C 941.492188 693.617188 943.621094 690.898438 945.832031 687.066406 C 945.832031 687.066406 959.164062 693.886719 981.179688 688.054688 Z M 1027.644531 598.796875 " fill-opacity="1" fill-rule="nonzero"/><path fill="#eb9481" d="M 937.128906 585.277344 C 927.707031 592.363281 907.988281 607.710938 896.222656 625.878906 C 883.15625 646.054688 863.421875 688.449219 878.417969 697.941406 C 889.414062 704.902344 898.367188 689.378906 898.367188 689.378906 C 898.367188 689.378906 893.90625 708.621094 905.214844 712.734375 C 915.515625 716.488281 921.726562 704.0625 921.726562 704.0625 C 921.726562 704.0625 921.027344 716.199219 931.648438 717.898438 C 944.421875 719.945312 943.792969 694.171875 958.523438 685.0625 C 961.832031 683.015625 937.128906 585.277344 937.128906 585.277344 Z M 937.128906 585.277344 " fill-opacity="1" fill-rule="nonzero"/><path fill="#263238" d="M 919.847656 636.125 C 912.078125 644.242188 899.160156 667.199219 898.132812 688.9375 C 898.109375 689.429688 898.46875 689.710938 898.585938 689.265625 C 904.800781 665.574219 915.128906 644.800781 920.035156 636.25 C 920.105469 636.136719 919.933594 636.039062 919.847656 636.125 Z M 919.847656 636.125 " fill-opacity="1" fill-rule="nonzero"/><path fill="#263238" d="M 939.832031 649.910156 C 933.847656 657.601562 921.589844 681.859375 921.304688 703.921875 C 921.300781 704.414062 921.679688 704.675781 921.777344 704.222656 C 927.25 679.203125 935.636719 658.851562 940.027344 650.023438 C 940.089844 649.902344 939.910156 649.8125 939.832031 649.910156 Z M 939.832031 649.910156 " fill-opacity="1" fill-rule="nonzero"/><path fill="#263238" d="M 892.046875 632.492188 C 882.84375 636.941406 877.339844 642.726562 870.113281 649.746094 C 866.539062 653.21875 862.898438 656.640625 858.960938 659.699219 C 855.371094 662.480469 850.09375 666.660156 845.34375 664.019531 C 842.703125 662.546875 842.179688 659.164062 842.253906 656.414062 C 842.34375 653.324219 844.386719 647.308594 845.75 644.527344 C 845.820312 644.386719 845.574219 644.261719 845.503906 644.402344 C 844.230469 646.882812 841.835938 652.417969 841.3125 655.164062 C 840.835938 657.652344 840.617188 660.488281 841.6875 662.859375 C 843.988281 667.957031 850.394531 667.617188 854.605469 665.414062 C 857.125 664.097656 859.414062 662.261719 861.609375 660.472656 C 863.730469 658.738281 865.769531 656.902344 867.761719 655.019531 C 871.84375 651.152344 875.699219 647.054688 879.738281 643.140625 C 884.179688 638.839844 887.359375 636.570312 892.242188 632.792969 C 892.410156 632.660156 892.226562 632.402344 892.046875 632.492188 Z M 892.046875 632.492188 " fill-opacity="1" fill-rule="nonzero"/><path fill="#263238" d="M 877.421875 669.875 C 879.011719 663.945312 888.765625 638.730469 892.28125 632.6875 C 892.371094 632.535156 892.160156 632.386719 892.050781 632.535156 C 885.695312 640.925781 876.71875 661.914062 874.902344 668.460938 C 873.105469 674.933594 871.164062 683.148438 872.269531 689.84375 C 873.941406 699.953125 880.960938 700.757812 883.519531 700.84375 C 886.578125 700.941406 889.460938 699.828125 891.886719 698.011719 C 894.589844 695.988281 896.925781 692.339844 898.46875 689.394531 C 898.550781 689.238281 898.335938 689.082031 898.238281 689.238281 C 895.398438 693.796875 890.230469 698.6875 884.617188 698.875 C 882.183594 698.957031 879.59375 698.273438 877.808594 696.535156 C 875.714844 694.5 875.074219 691.46875 874.847656 688.664062 C 874.339844 682.320312 875.789062 675.964844 877.421875 669.875 Z M 877.421875 669.875 " fill-opacity="1" fill-rule="nonzero"/><path fill="#00396c" d="M 1027.644531 594.425781 L 996.03125 704.464844 C 996.03125 704.464844 1192.769531 715.679688 1203.675781 679.957031 C 1214.578125 644.230469 1119.523438 527.1875 1080.101562 495.042969 C 1034.414062 457.796875 1031.953125 473.441406 1046.832031 510.699219 C 1062.402344 549.703125 1089.222656 605.402344 1089.222656 605.402344 Z M 1027.644531 594.425781 " fill-opacity="1" fill-rule="nonzero"/><path fill="#263238" d="M 1151.367188 623.023438 C 1141.59375 618.332031 1131.359375 614.578125 1121.015625 611.351562 C 1110.773438 608.15625 1100.230469 606.074219 1089.644531 604.417969 C 1083.59375 603.46875 1077.519531 602.820312 1071.4375 602.125 C 1071.253906 602.105469 1071.230469 602.386719 1071.410156 602.414062 C 1082.066406 603.910156 1092.640625 606.351562 1103.042969 609.0625 C 1113.40625 611.769531 1123.703125 614.652344 1133.960938 617.734375 C 1139.761719 619.476562 1145.480469 621.496094 1151.21875 623.433594 C 1151.488281 623.519531 1151.617188 623.140625 1151.367188 623.023438 Z M 1151.367188 623.023438 " fill-opacity="1" fill-rule="nonzero"/><path fill="#263238" d="M 1028.101562 594.042969 C 1029.097656 594.132812 1083.804688 602.679688 1085.640625 603.1875 C 1085.292969 602.441406 1071.425781 576.398438 1069.359375 572.589844 C 1069.15625 572.210938 1068.96875 571.824219 1068.765625 571.445312 C 1067.523438 569.800781 1066.269531 568.164062 1065.09375 566.46875 C 1063.582031 564.296875 1062.085938 562.113281 1060.589844 559.933594 C 1060.542969 559.867188 1060.640625 559.785156 1060.6875 559.851562 C 1062.28125 561.957031 1063.878906 564.0625 1065.460938 566.175781 C 1066.191406 567.15625 1066.890625 568.15625 1067.585938 569.160156 C 1066.199219 566.457031 1064.847656 563.742188 1063.496094 561.015625 C 1061.34375 556.664062 1059.332031 552.261719 1057.332031 547.835938 C 1057.269531 547.691406 1057.480469 547.605469 1057.554688 547.738281 C 1061.636719 555.332031 1065.957031 562.785156 1070.0625 570.363281 C 1074.160156 577.925781 1089.738281 605.777344 1089.652344 605.769531 C 1089.574219 605.859375 1029.183594 595.0625 1028.007812 594.78125 C 1027.546875 594.675781 1027.613281 594 1028.101562 594.042969 Z M 1028.101562 594.042969 " fill-opacity="1" fill-rule="nonzero"/><path fill="#263238" d="M 1035.617188 661.171875 C 1039.070312 648.902344 1042.429688 636.601562 1046.335938 624.457031 C 1048.558594 617.558594 1050.746094 610.644531 1053.03125 603.765625 C 1053.117188 603.507812 1053.574219 603.617188 1053.507812 603.886719 C 1050.53125 616.335938 1047.511719 628.820312 1043.964844 641.132812 C 1040.433594 653.386719 1037.007812 665.667969 1033.316406 677.878906 C 1031.214844 684.820312 1028.917969 691.671875 1026.398438 698.480469 C 1026.351562 698.617188 1026.117188 698.558594 1026.148438 698.417969 C 1028.710938 685.851562 1032.136719 673.527344 1035.617188 661.171875 Z M 1035.617188 661.171875 " fill-opacity="1" fill-rule="nonzero"/><path fill="#263238" d="M 993.847656 706.46875 C 995.230469 703.011719 996.878906 698.089844 998.402344 694.695312 C 998.800781 693.796875 999.457031 693.863281 999.164062 694.785156 C 998.191406 697.875 997.523438 701.277344 996.578125 704.441406 C 999.328125 704.53125 1002.082031 704.5625 1004.832031 704.679688 C 1008.015625 704.816406 1011.195312 704.964844 1014.378906 705.089844 C 1020.609375 705.335938 1026.84375 705.515625 1033.078125 705.632812 C 1045.703125 705.871094 1058.335938 705.835938 1070.964844 705.539062 C 1096.269531 704.941406 1121.621094 703.414062 1146.738281 700.195312 C 1153.761719 699.296875 1160.777344 698.257812 1167.746094 697.007812 C 1174.828125 695.734375 1182.46875 694.316406 1188.214844 692.601562 C 1188.398438 692.550781 1188.488281 692.859375 1188.308594 692.929688 C 1182.425781 695.1875 1176.890625 696.898438 1170.746094 698.230469 C 1164.472656 699.585938 1158.160156 700.773438 1151.816406 701.75 C 1139.183594 703.691406 1126.449219 704.960938 1113.703125 705.882812 C 1088.429688 707.71875 1063.070312 708.453125 1037.730469 708.179688 C 1030.632812 708.101562 1023.535156 707.941406 1016.4375 707.699219 C 1012.859375 707.574219 1009.277344 707.453125 1005.699219 707.257812 C 1002.117188 707.066406 993.613281 707.054688 993.847656 706.46875 Z M 993.847656 706.46875 " fill-opacity="1" fill-rule="nonzero"/><path fill="#455a64" d="M 980.207031 720.949219 L 728.480469 720.949219 L 728.480469 731.101562 L 980.207031 731.101562 Z M 980.207031 720.949219 " fill-opacity="1" fill-rule="nonzero"/><path fill="#a6a6a6" d="M 980.207031 720.949219 L 840.917969 720.949219 L 840.917969 731.101562 L 980.207031 731.101562 Z M 980.207031 720.949219 " fill-opacity="1" fill-rule="nonzero"/><path fill="#a6a6a6" d="M 845.144531 731.089844 L 624.523438 731.089844 L 593.351562 581.253906 L 813.976562 581.253906 Z M 845.144531 731.089844 " fill-opacity="1" fill-rule="nonzero"/><path fill="#c7c7c7" d="M 835.140625 731.089844 L 614.519531 731.089844 L 583.347656 581.253906 L 803.972656 581.253906 Z M 835.140625 731.089844 " fill-opacity="1" fill-rule="nonzero"/><path fill="#ebebeb" d="M 723.949219 659.519531 C 724.800781 667.640625 718.910156 674.222656 710.792969 674.222656 C 702.671875 674.222656 695.394531 667.640625 694.539062 659.519531 C 693.6875 651.398438 699.578125 644.8125 707.699219 644.8125 C 715.820312 644.8125 723.097656 651.398438 723.949219 659.519531 Z M 723.949219 659.519531 " fill-opacity="1" fill-rule="nonzero"/><path fill="#00396c" d="M 1014.152344 526.941406 C 1014.152344 526.941406 1050.945312 490.351562 1074.988281 490.980469 L 1095.53125 508.917969 C 1095.53125 508.917969 1102.246094 511.0625 1104.28125 506.800781 C 1109.316406 496.265625 1110.132812 470.871094 1088.164062 454.574219 C 1068.050781 439.652344 1035.320312 441.039062 1008.070312 448.460938 C 981.898438 455.589844 959.285156 473.183594 967.472656 490.226562 C 975.660156 507.265625 1014.152344 526.941406 1014.152344 526.941406 Z M 1014.152344 526.941406 " fill-opacity="1" fill-rule="nonzero"/><path fill="#000000" d="M 1011.457031 518.921875 C 1011.457031 518.921875 981.195312 497.695312 977.980469 484.964844 C 974.769531 472.238281 1000.171875 459.875 1016.597656 454.972656 C 1042.027344 447.382812 1059.398438 448.875 1073.792969 462.363281 C 1088.183594 475.847656 1011.457031 518.921875 1011.457031 518.921875 Z M 1011.457031 518.921875 " fill-opacity="0.1" fill-rule="nonzero"/><path fill="#00396c" d="M 1011.457031 518.921875 C 1011.457031 518.921875 1040.78125 468.335938 1077.878906 463.054688 L 1074.988281 490.984375 C 1074.988281 490.984375 1052.832031 491.21875 1014.152344 526.945312 Z M 1011.457031 518.921875 " fill-opacity="1" fill-rule="nonzero"/><path fill="#263238" d="M 1085.003906 491.410156 C 1078.195312 490.621094 1071.457031 492.183594 1065.09375 494.246094 C 1058.691406 496.339844 1052.65625 499.421875 1046.90625 502.910156 C 1041.101562 506.324219 1035.691406 510.375 1030.378906 514.53125 L 1022.667969 521.109375 L 1015.253906 528.042969 L 1014.425781 528.824219 L 1013.484375 528.351562 C 1006.480469 524.835938 999.800781 520.859375 993.367188 516.449219 C 990.167969 514.230469 986.996094 511.960938 984.074219 509.367188 C 981.144531 506.804688 978.300781 504.109375 975.929688 501.03125 C 981.472656 506.46875 987.949219 510.679688 994.488281 514.714844 C 997.769531 516.714844 1001.144531 518.570312 1004.546875 520.359375 C 1007.945312 522.144531 1011.371094 523.9375 1014.824219 525.535156 L 1013.054688 525.839844 L 1020.476562 518.679688 C 1023.046875 516.390625 1025.671875 514.164062 1028.304688 511.945312 C 1031.066406 509.878906 1033.785156 507.757812 1036.617188 505.792969 C 1039.527344 503.925781 1042.363281 501.960938 1045.4375 500.359375 C 1051.417969 496.90625 1057.882812 494.246094 1064.554688 492.425781 C 1066.210938 491.9375 1067.925781 491.632812 1069.609375 491.28125 C 1071.324219 491.050781 1073.035156 490.777344 1074.757812 490.683594 C 1078.183594 490.425781 1081.695312 490.507812 1085.003906 491.410156 Z M 1085.003906 491.410156 " fill-opacity="1" fill-rule="nonzero"/><path fill="#263238" d="M 1095.53125 508.917969 C 1091.679688 506.421875 1088.15625 503.542969 1084.710938 500.578125 C 1081.304688 497.566406 1077.980469 494.460938 1074.988281 490.980469 C 1078.84375 493.476562 1082.367188 496.351562 1085.808594 499.320312 C 1089.210938 502.335938 1092.535156 505.4375 1095.53125 508.917969 Z M 1095.53125 508.917969 " fill-opacity="1" fill-rule="nonzero"/><path fill="#00396c" d="M 1026.488281 509.820312 C 1026.488281 509.820312 1029.582031 524.1875 1030.027344 544.976562 C 1030.207031 553.207031 1027.046875 582.722656 1017.898438 581.65625 C 1008.753906 580.59375 1023.644531 561.542969 1026.253906 545.972656 C 1028.902344 530.171875 1024.703125 519.007812 1024.140625 509.6875 Z M 1026.488281 509.820312 " fill-opacity="1" fill-rule="nonzero"/><path fill="#000000" d="M 1026.488281 509.820312 C 1026.488281 509.820312 1029.582031 524.1875 1030.027344 544.976562 C 1030.207031 553.207031 1027.046875 582.722656 1017.898438 581.65625 C 1008.753906 580.59375 1023.644531 561.542969 1026.253906 545.972656 C 1028.902344 530.171875 1024.703125 519.007812 1024.140625 509.6875 Z M 1026.488281 509.820312 " fill-opacity="0.1" fill-rule="nonzero"/><path fill="#00396c" d="M 994.042969 511.457031 C 994.042969 511.457031 989.777344 527.003906 987.242188 545.6875 C 986.238281 553.082031 986.050781 580 994.402344 579.980469 C 1002.753906 579.960938 991.292969 561.265625 990.539062 546.972656 C 989.773438 532.460938 994.707031 519.914062 996.164062 511.574219 Z M 994.042969 511.457031 " fill-opacity="1" fill-rule="nonzero"/><path fill="#000000" d="M 994.042969 511.457031 C 994.042969 511.457031 989.777344 527.003906 987.242188 545.6875 C 986.238281 553.082031 986.050781 580 994.402344 579.980469 C 1002.753906 579.960938 991.292969 561.265625 990.539062 546.972656 C 989.773438 532.460938 994.707031 519.914062 996.164062 511.574219 Z M 994.042969 511.457031 " fill-opacity="0.1" fill-rule="nonzero"/><path fill="#eb9481" d="M 1008.371094 513.246094 C 1017.917969 512.625 1035.707031 492.691406 1041.761719 476.875 C 1042.171875 475.789062 1039.179688 465.363281 1036.140625 452.523438 C 1034.324219 444.722656 1032.488281 435.996094 1031.390625 427.910156 L 982.359375 447.125 C 982.359375 447.125 989.648438 463.394531 991.480469 477.5 C 991.621094 478.683594 991.652344 479.792969 991.582031 480.867188 C 991.589844 481.019531 991.570312 481.210938 991.585938 481.425781 C 991.414062 487.871094 993.421875 514.21875 1008.371094 513.246094 Z M 1008.371094 513.246094 " fill-opacity="1" fill-rule="nonzero"/><path fill="#263238" d="M 991.589844 480.875 C 991.59375 481.03125 991.558594 481.199219 991.578125 481.433594 C 993.214844 481.4375 994.929688 481.300781 996.839844 480.996094 C 1025.578125 476.414062 1027.855469 440.328125 1027.839844 429.296875 L 982.335938 447.121094 C 982.335938 447.121094 989.632812 463.390625 991.496094 477.511719 C 991.605469 478.675781 991.660156 479.777344 991.589844 480.875 Z M 991.589844 480.875 " fill-opacity="1" fill-rule="nonzero"/><path fill="#eb9481" d="M 1021.414062 364.660156 C 1031.6875 380.609375 1036.757812 433.65625 1027.527344 448.417969 C 1014.140625 469.820312 985.113281 479.730469 965.128906 462.015625 C 945.761719 444.84375 940.375 375.59375 951.351562 361.445312 C 967.519531 340.605469 1006.238281 341.101562 1021.414062 364.660156 Z M 1021.414062 364.660156 " fill-opacity="1" fill-rule="nonzero"/><path fill="#263238" d="M 988.3125 403.351562 C 986.695312 403.15625 985.238281 402.710938 983.660156 402.351562 C 981.882812 401.949219 980.417969 401.808594 979.109375 400.425781 C 978.410156 399.683594 978.46875 398.183594 979.128906 397.433594 C 980.65625 395.691406 982.960938 395.640625 985.125 396.039062 C 987.472656 396.472656 989.171875 397.40625 990.714844 399.21875 C 992.210938 400.976562 990.441406 403.609375 988.3125 403.351562 Z M 988.3125 403.351562 " fill-opacity="1" fill-rule="nonzero"/><path fill="#263238" d="M 952.363281 408.257812 C 953.921875 407.796875 955.285156 407.109375 956.777344 406.492188 C 958.464844 405.792969 959.878906 405.414062 960.941406 403.832031 C 961.507812 402.980469 961.195312 401.515625 960.421875 400.882812 C 958.625 399.417969 956.34375 399.757812 954.277344 400.511719 C 952.035156 401.332031 950.519531 402.539062 949.300781 404.585938 C 948.121094 406.574219 950.304688 408.871094 952.363281 408.257812 Z M 952.363281 408.257812 " fill-opacity="1" fill-rule="nonzero"/><path fill="#263238" d="M 991.054688 445.058594 C 990.308594 446 989.605469 447.257812 988.328125 447.53125 C 987.101562 447.792969 985.578125 447.421875 984.386719 447.125 C 984.269531 447.09375 984.171875 447.226562 984.257812 447.328125 C 985.355469 448.574219 987.410156 449.183594 989.023438 448.683594 C 990.597656 448.199219 991.21875 446.703125 991.421875 445.175781 C 991.449219 444.964844 991.164062 444.921875 991.054688 445.058594 Z M 991.054688 445.058594 " fill-opacity="1" fill-rule="nonzero"/><path fill="#263238" d="M 985.953125 434.875 C 984.355469 438.21875 981.640625 440.28125 978.550781 441.300781 C 977.171875 441.765625 975.6875 442.003906 974.214844 442.054688 C 973.925781 442.085938 973.636719 442.089844 973.367188 442.066406 C 973.105469 442.066406 972.867188 442.066406 972.574219 442.046875 C 972.152344 442.039062 971.878906 441.722656 971.757812 441.335938 L 971.753906 441.3125 C 971.738281 441.183594 971.730469 441.078125 971.742188 440.945312 C 971.742188 440.945312 971.742188 440.945312 971.738281 440.917969 L 971.707031 440.601562 C 971.285156 437.871094 971.019531 433.667969 971.019531 433.667969 C 970.078125 434.296875 965.265625 437.246094 965.164062 435.800781 C 964.359375 423.855469 963.46875 410.570312 965.195312 398.511719 C 965.230469 398.113281 965.839844 398.125 965.855469 398.519531 C 967.078125 409.96875 966.285156 421.558594 967.332031 433.082031 C 968.882812 432.257812 971.394531 430.769531 972.832031 430.613281 C 973.234375 430.675781 973.199219 438.746094 973.488281 439.957031 C 973.488281 439.957031 973.492188 440.011719 973.527344 440.085938 C 978.207031 440.089844 981.5 438.253906 985.582031 434.59375 C 985.820312 434.359375 986.136719 434.566406 985.953125 434.875 Z M 985.953125 434.875 " fill-opacity="1" fill-rule="nonzero"/><path fill="#263238" d="M 975.65625 440.460938 C 975.65625 440.460938 978.503906 443.429688 981.980469 444.1875 C 983.265625 444.472656 984.605469 444.476562 985.945312 443.933594 C 988.691406 442.824219 988.433594 440.207031 987.625 438.039062 C 986.96875 436.257812 985.914062 434.785156 985.914062 434.785156 C 985.914062 434.785156 982.261719 439.199219 975.65625 440.460938 Z M 975.65625 440.460938 " fill-opacity="1" fill-rule="nonzero"/><path fill="#ff9abb" d="M 981.984375 444.1875 C 983.265625 444.472656 984.609375 444.476562 985.949219 443.933594 C 988.695312 442.824219 988.433594 440.207031 987.628906 438.039062 C 984.617188 438.738281 981.863281 441.195312 981.984375 444.1875 Z M 981.984375 444.1875 " fill-opacity="1" fill-rule="nonzero"/><path fill="#263238" d="M 981.320312 413.058594 C 981.328125 412.917969 981.621094 413.179688 981.640625 413.328125 C 982.089844 416.863281 983.199219 420.84375 986.570312 421.503906 C 986.671875 421.523438 986.691406 421.703125 986.570312 421.707031 C 982.597656 421.777344 981.179688 416.480469 981.320312 413.058594 Z M 981.320312 413.058594 " fill-opacity="1" fill-rule="nonzero"/><path fill="#263238" d="M 983.882812 408.878906 C 989.476562 407.550781 991.726562 418.835938 986.542969 420.070312 C 981.441406 421.285156 979.191406 409.996094 983.882812 408.878906 Z M 983.882812 408.878906 " fill-opacity="1" fill-rule="nonzero"/><path fill="#263238" d="M 960.707031 415.761719 C 960.652344 415.636719 960.46875 415.984375 960.5 416.125 C 961.335938 419.59375 961.710938 423.707031 958.792969 425.519531 C 958.699219 425.578125 958.746094 425.75 958.859375 425.710938 C 962.601562 424.367188 962.050781 418.914062 960.707031 415.761719 Z M 960.707031 415.761719 " fill-opacity="1" fill-rule="nonzero"/><path fill="#263238" d="M 956.835938 412.761719 C 951.132812 413.5 953.027344 424.851562 958.308594 424.167969 C 963.507812 423.496094 961.613281 412.144531 956.835938 412.761719 Z M 956.835938 412.761719 " fill-opacity="1" fill-rule="nonzero"/><path fill="#455a64" d="M 1016.355469 398.824219 C 1009.066406 389.714844 1008.714844 370.175781 1001.839844 367.394531 C 986.953125 361.378906 970.996094 389.054688 955.253906 394.875 C 940 400.511719 931.320312 392.535156 929.585938 379.128906 C 927.847656 365.722656 935.359375 353.5625 951.589844 344.777344 C 968.378906 335.691406 987.152344 336.976562 997.992188 339.421875 C 997.992188 339.421875 991.882812 334.628906 992.632812 332.179688 C 993.378906 329.734375 1003.027344 332.972656 1006.234375 334.679688 C 1009.492188 336.414062 1012.648438 340.691406 1012.648438 340.691406 C 1012.648438 340.691406 1015.136719 338.847656 1019.367188 337.4375 C 1023.289062 336.125 1029.292969 337.394531 1029.902344 338.207031 C 1030.511719 339.023438 1025.203125 341.75 1021.375 343.363281 C 1021.375 343.363281 1032.148438 350.386719 1034.992188 358.707031 C 1037.832031 367.027344 1039.210938 410.957031 1036.273438 412.503906 C 1032.503906 414.484375 1019.316406 402.523438 1016.355469 398.824219 Z M 1016.355469 398.824219 " fill-opacity="1" fill-rule="nonzero"/><path fill="#455a64" d="M 1019.5 342.90625 C 1019.335938 342.875 1019.214844 343.128906 1019.390625 343.195312 C 1024.277344 345.058594 1028.644531 347.707031 1031.902344 351.886719 C 1035.683594 356.75 1037.464844 362.828125 1038.246094 368.859375 C 1039.765625 380.59375 1038.03125 392.367188 1037.054688 404.058594 C 1037.027344 404.402344 1037.605469 404.460938 1037.65625 404.117188 C 1039.488281 391.796875 1041.089844 378.558594 1038.972656 366.1875 C 1037.167969 355.640625 1030.746094 345.089844 1019.5 342.90625 Z M 1019.5 342.90625 " fill-opacity="1" fill-rule="nonzero"/><path fill="#455a64" d="M 1000.988281 363.164062 C 996.273438 364.164062 991.433594 366.402344 987.449219 369.101562 C 983.523438 371.761719 980.800781 375.792969 977.695312 379.300781 C 970.722656 387.167969 962.523438 394.28125 952.261719 397.304688 C 952.128906 397.34375 952.191406 397.535156 952.320312 397.507812 C 961.917969 395.332031 969.894531 389.347656 976.570312 382.335938 C 979.9375 378.796875 982.753906 374.460938 986.527344 371.355469 C 990.816406 367.820312 996.136719 365.972656 1001.246094 364.003906 C 1001.777344 363.796875 1001.539062 363.046875 1000.988281 363.164062 Z M 1000.988281 363.164062 " fill-opacity="1" fill-rule="nonzero"/><path fill="#455a64" d="M 986.996094 338.496094 C 979.707031 337.582031 972.265625 337.949219 965.027344 339.128906 C 958.085938 340.257812 951.175781 342.164062 945.003906 345.613281 C 934.347656 351.566406 926.546875 362.558594 928.109375 375.15625 C 928.902344 381.539062 931.867188 387.785156 936.824219 391.980469 C 937.15625 392.261719 937.589844 391.792969 937.28125 391.476562 C 928.929688 382.984375 926.277344 369.972656 932.195312 359.332031 C 938.554688 347.902344 951.378906 342.550781 963.640625 340.195312 C 971.359375 338.714844 979.144531 338.425781 986.984375 338.585938 C 987.035156 338.582031 987.042969 338.5 986.996094 338.496094 Z M 986.996094 338.496094 " fill-opacity="1" fill-rule="nonzero"/><path fill="#37474f" d="M 993.914062 430.601562 C 1001.019531 428.625 1006.179688 422.019531 1006.011719 414.316406 C 1005.808594 405.199219 998.234375 397.953125 989.125 398.152344 C 980.011719 398.351562 972.761719 405.925781 972.960938 415.039062 C 973.164062 424.148438 980.738281 431.398438 989.847656 431.199219 C 991.257812 431.167969 992.617188 430.960938 993.914062 430.601562 Z M 985.648438 400.878906 C 986.769531 400.566406 987.953125 400.390625 989.171875 400.363281 C 997.066406 400.1875 1003.625 406.46875 1003.804688 414.363281 C 1003.972656 422.253906 997.695312 428.828125 989.800781 428.992188 C 981.910156 429.164062 975.347656 422.886719 975.171875 414.992188 C 975.023438 408.316406 979.492188 402.59375 985.648438 400.878906 Z M 985.648438 400.878906 " fill-opacity="1" fill-rule="nonzero"/><path fill="#37474f" d="M 956.40625 436.234375 C 962.496094 434.539062 966.289062 426.761719 964.964844 418.242188 C 964.296875 413.941406 962.4375 410.078125 959.738281 407.363281 C 956.945312 404.550781 953.582031 403.285156 950.265625 403.804688 C 946.941406 404.3125 944.128906 406.546875 942.320312 410.074219 C 940.574219 413.484375 939.980469 417.726562 940.648438 422.027344 C 942.050781 431.027344 948.644531 437.507812 955.347656 436.464844 C 955.707031 436.410156 956.054688 436.332031 956.40625 436.234375 Z M 949.785156 406.164062 C 950.050781 406.089844 950.324219 406.027344 950.605469 405.988281 C 953.199219 405.582031 955.886719 406.621094 958.171875 408.917969 C 960.546875 411.308594 962.183594 414.738281 962.785156 418.582031 C 963.996094 426.382812 960.527344 433.425781 955.007812 434.28125 C 949.511719 435.136719 944.046875 429.484375 942.832031 421.6875 C 942.234375 417.847656 942.753906 414.078125 944.289062 411.082031 C 945.605469 408.507812 947.535156 406.789062 949.785156 406.164062 Z M 949.785156 406.164062 " fill-opacity="1" fill-rule="nonzero"/><path fill="#37474f" d="M 973.800781 416.84375 L 974.945312 414.953125 C 972.144531 413.257812 965.984375 411.351562 962.65625 416.242188 L 964.484375 417.484375 C 967.457031 413.097656 973.546875 416.691406 973.800781 416.84375 Z M 973.800781 416.84375 " fill-opacity="1" fill-rule="nonzero"/><path fill="#37474f" d="M 1047.222656 409.722656 L 1049.007812 408.417969 C 1048.394531 407.589844 1042.917969 400.292969 1037.917969 400.257812 C 1033.25 400.242188 1004.410156 407.535156 1003.183594 407.851562 L 1003.730469 409.992188 C 1011.996094 407.890625 1034.296875 402.445312 1037.902344 402.46875 C 1041.203125 402.488281 1045.75 407.710938 1047.222656 409.722656 Z M 1047.222656 409.722656 " fill-opacity="1" fill-rule="nonzero"/><path fill="#eb9481" d="M 1022.277344 408.816406 C 1022.277344 408.816406 1029.453125 389.414062 1037.964844 391.558594 C 1046.476562 393.699219 1044.074219 419.726562 1036.1875 425.265625 C 1028.304688 430.800781 1023.035156 423.601562 1023.035156 423.601562 Z M 1022.277344 408.816406 " fill-opacity="1" fill-rule="nonzero"/><path fill="#263238" d="M 1037.089844 399.003906 C 1037.226562 398.953125 1037.304688 399.144531 1037.199219 399.222656 C 1031.722656 403.308594 1029.984375 409.832031 1029.269531 416.3125 C 1030.496094 413.570312 1032.652344 411.675781 1036.253906 413.050781 C 1036.445312 413.121094 1036.355469 413.414062 1036.175781 413.417969 C 1033.523438 413.539062 1031.828125 414.449219 1030.660156 416.902344 C 1029.832031 418.640625 1029.484375 420.652344 1029.050781 422.519531 C 1028.910156 423.144531 1027.84375 423.109375 1027.886719 422.421875 C 1027.886719 422.375 1027.894531 422.320312 1027.898438 422.265625 C 1025.703125 414.5 1028.910156 401.980469 1037.089844 399.003906 Z M 1037.089844 399.003906 " fill-opacity="1" fill-rule="nonzero"/></svg>